# xmcd CD database file
#
# Track frame offsets:
#	150
#	15415
#	32407
#	45994
#	59492
#	74241
#	90570
#	106859
#	121702
#	135558
#	149228
#	163107
#	176658
#	189511
#	203164
#	216818
#	229683
#	242982
#	256671
#	270008
#	284327
#	297331
#	311233
#	324637
#	339489
#
# Disc length: 4716 seconds
#
# Revision: 0
# Processed by: cddbd v1.5.2PL0 Copyright (c) Steve Scherf et al.
# Submitted via: CDex 1.70beta2
#
DISCID=73126a19
DTITLE=Memphis Jug Band - Volume 4 - The Complete Vocalion and Okeh Recordings Plus Unissued Victor Tests - Frog
DYEAR=1927
DGENRE=Blues
TTITLE0=I Packed My Suitcase, Started to the Train #1
TTITLE1=Bob Lee Junior Blues #1
TTITLE2=Beale Street Mess Around #2
TTITLE3=I'll See You in the Spring, When the Birds Begin to Sing #2
TTITLE4=Evergreen Money Blues #1
TTITLE5=Coal Oil Blues
TTITLE6=Papa Long Blues #1
TTITLE7=Peaches in the Springtime #1
TTITLE8=Stealin' Stealin' #1
TTITLE9=Mary Anna Cut Off
TTITLE10=My Love Is Cold
TTITLE11=Jazzbo Stomp
TTITLE12=Gator Wobble
TTITLE13=Tear It Down, Bed Slats and All
TTITLE14=Boodie Bum Bum
TTITLE15=Take Your Fingers Off It
TTITLE16=Little Green Slippers
TTITLE17=Fishin' in the Dark
TTITLE18=Bottle It Up and Go
TTITLE19=Insane Crazy Blues
TTITLE20=She Done Sold It Out
TTITLE21=Memphis Shakedown
TTITLE22=Rukus Juice and Chittlin'
TTITLE23=My Business Ain't Right
TTITLE24=Jug Band Quartette
EXTD=YEAR: 1927
EXTT0=
EXTT1=
EXTT2=
EXTT3=
EXTT4=
EXTT5=
EXTT6=
EXTT7=
EXTT8=
EXTT9=
EXTT10=
EXTT11=
EXTT12=
EXTT13=
EXTT14=
EXTT15=
EXTT16=
EXTT17=
EXTT18=
EXTT19=
EXTT20=
EXTT21=
EXTT22=
EXTT23=
EXTT24=
PLAYORDER=
